<svg width="32" height="32" viewBox="0 0 32 32" fill="none" xmlns="http://www.w3.org/2000/svg">
<circle cx="16" cy="16" r="16" fill="#83001A"/>
<path d="M10.2333 16.8584C9.28888 16.6695 8.49861 16.214 7.8625 15.4917C7.78853 15.4084 7.73622 15.3081 7.71017 15.1997C7.68412 15.0914 7.68514 14.9782 7.71314 14.8704C7.74114 14.7625 7.79525 14.6632 7.87071 14.5811C7.94617 14.4991 8.04066 14.4369 8.14583 14.4001L8.62916 14.2292C8.85972 14.1487 8.86388 14.0542 8.64166 13.9459C7.57083 13.4334 6.61666 12.8042 6.25416 11.6459C6.21576 11.5241 6.21317 11.3938 6.2467 11.2705C6.28022 11.1473 6.34845 11.0362 6.44326 10.9507C6.53807 10.8651 6.65548 10.8085 6.78151 10.7877C6.90754 10.7669 7.03689 10.7828 7.15416 10.8334C7.26805 10.8806 7.38611 10.9056 7.50833 10.9084C7.70833 10.914 7.77638 10.8223 7.7125 10.6334C7.34305 9.55562 7.19583 8.32923 7.27083 6.95423C7.27586 6.87568 7.29968 6.79949 7.34029 6.73206C7.38089 6.66463 7.43709 6.60793 7.50416 6.56673C7.96805 6.28062 8.29444 6.39729 8.48333 6.91673C8.95 8.21396 9.91805 9.27923 11.3875 10.1126C13.5236 11.3292 15.4403 12.5542 17.1375 13.7876C17.9042 14.3431 18.5597 15.0209 19.1042 15.8209C19.1609 15.9044 19.2391 15.9712 19.3306 16.0144C19.4222 16.0576 19.5238 16.0757 19.625 16.0667L19.7583 16.0542C19.9639 16.0376 20.0139 15.9403 19.9083 15.7626C18.6333 13.6251 16.3083 11.9376 14.2292 10.5126C14.1378 10.4507 14.0628 10.3675 14.0105 10.2703C13.9583 10.1731 13.9304 10.0646 13.9292 9.95423C13.9181 8.71535 14.4319 7.70979 15.4708 6.93757C15.5487 6.87967 15.6402 6.84291 15.7365 6.83085C15.8328 6.8188 15.9306 6.83186 16.0203 6.86876C16.1101 6.90567 16.1888 6.96517 16.2487 7.04147C16.3087 7.11778 16.3479 7.2083 16.3625 7.30423C16.5292 8.37923 16.7375 9.27923 17.4917 10.1251C18.5833 11.3473 19.7667 12.5792 21.0417 13.8209C22.1333 14.8876 22.7958 15.8987 23.0292 16.8542C23.0625 16.9959 23.1306 17.1167 23.2333 17.2167C24.3222 18.2612 24.8181 19.489 24.7208 20.9001C24.4792 24.5001 20.2917 26.3917 17.4792 24.2501C15.8097 22.9806 15.2569 21.2806 15.8208 19.1501C15.8681 18.9751 15.8014 18.8903 15.6208 18.8959C14.0167 18.9584 11.4708 19.1251 10.0333 18.3834C9.97107 18.3509 9.91724 18.305 9.87605 18.2494C9.83486 18.1937 9.80741 18.1298 9.79583 18.0626C9.72361 17.6765 9.88194 17.4028 10.2708 17.2417C10.6819 17.0723 10.6694 16.9445 10.2333 16.8584ZM20.2542 20.0792C20.0125 20.2084 19.6875 20.1334 19.4792 19.9751C18.8736 19.5195 18.2083 19.2028 17.4833 19.0251C17.325 18.989 17.2153 19.0459 17.1542 19.1959C16.1167 21.7042 17.975 24.1876 20.6458 23.8542C22.55 23.6167 23.8792 21.6834 23.3917 19.8126C22.9889 18.2765 21.9236 17.4153 20.1958 17.2292C20.1639 17.2258 20.1316 17.2311 20.1023 17.2445C20.0731 17.2579 20.048 17.2789 20.0297 17.3053C20.0113 17.3317 20.0005 17.3626 19.9982 17.3946C19.9959 17.4267 20.0023 17.4588 20.0167 17.4876C20.3444 18.1459 20.525 18.8292 20.5583 19.5376C20.5648 19.6471 20.5396 19.7563 20.4857 19.8523C20.4318 19.9482 20.3515 20.027 20.2542 20.0792Z" fill="#E7C200"/>
</svg>
