<svg width="144" height="144" viewBox="0 0 144 144" fill="none" xmlns="http://www.w3.org/2000/svg">
<rect width="144" height="144" fill="#83001A"/>
<path d="M63.5102 9.08887C62.3978 9.08494 61.2821 9.08606 60.1633 9.09084C54.7782 9.11587 49.3071 9.25734 43.7892 9.46209L45.3856 16.4632C51.1318 15.8136 57.4315 15.3298 63.7307 15.0879C67.1434 14.9569 70.5352 14.8877 73.8253 14.9051C83.6958 14.9566 92.6513 15.7854 98.5106 18.0557L101.016 19.0271L99.8975 21.4698C91.7241 39.3249 89.8338 56.5507 91.1146 73.4521C91.7468 53.3939 100.084 35.5537 111.03 12.683C96.136 10.208 80.1953 9.14428 63.5102 9.08859V9.08887ZM71.3947 19.9986C68.9366 20.0005 66.4307 20.0503 63.925 20.1465C52.2048 20.5965 40.5253 21.9718 32.9133 23.5485C41.4163 39.3207 48.2948 55.1292 52.7366 70.5403C53.2891 70.5219 53.8421 70.5261 54.3943 70.553C55.5244 70.6084 56.642 70.7617 57.7341 71.0002C53.213 56.5448 48.0634 43.2127 41.6618 29.9008L40.2154 26.8931L43.5021 26.3115C51.7584 24.8496 60.2803 24.2837 68.391 24.2812C68.9316 24.2812 69.471 24.2831 70.0076 24.2879C75.1612 24.3329 80.1281 24.5995 84.7299 25.0009L87.8389 25.2723L86.9321 28.2583C81.6727 45.5729 80.6425 64.1678 83.6162 81.8595C83.6657 81.9053 83.7157 81.9509 83.7641 81.9973C84.8365 81.6216 85.8397 81.2385 86.7749 80.829C84.4535 61.8744 85.482 42.3194 94.1518 21.9912C89.3137 20.7585 81.9385 20.1142 73.8346 20.0129C73.0213 20.0028 72.208 19.9979 71.3947 19.9986ZM112.161 22.0756C103.454 40.5132 97.2703 55.2884 96.2567 71.2389C101.892 52.4509 112.785 35.6088 125.198 24.7883C120.89 23.7135 116.54 22.8086 112.161 22.0756ZM29.2027 27.2869C23.9265 28.3747 18.7723 29.7557 13.7869 31.6637C16.2129 33.7674 20.5987 37.681 25.92 42.8825C28.3691 40.3616 30.8669 37.8712 33.4721 35.6065C32.0923 32.8113 30.669 30.0378 29.2027 27.2869ZM69.1467 29.3912C65.3161 29.3726 61.3949 29.4823 57.4596 29.7548C57.0468 33.6029 54.7709 37.2029 52.0526 40.7433C56.3926 51.0002 60.1408 61.4666 63.5152 72.5791C68.6832 74.1035 73.7961 75.9054 77.9377 78.0646C76.3993 66.1233 76.6097 53.8875 78.6071 41.9217C74.9832 38.1783 73.0955 34.0214 72.9441 29.4511C71.6786 29.4174 70.4127 29.3974 69.1467 29.3912ZM120.339 36.9807C113.384 45.2213 107.255 55.5424 103.079 66.7685C110.747 55.861 120.176 47.3532 130.213 41.3435C126.943 39.8414 123.652 38.387 120.339 36.9807ZM35.7561 40.3442C31.6516 44.0533 27.596 48.5052 23.3724 52.7465C32.4537 58.1439 40.1886 64.5359 46.4985 71.7759C46.8903 71.6279 47.286 71.4949 47.684 71.3737C44.7314 61.2217 40.6851 50.8331 35.7561 40.3442ZM101.396 75.4307C96.7846 80.9961 92.4429 83.9343 86.4647 86.2785C87.1371 88.8716 86.1384 91.8487 83.8395 94.1257C82.4872 95.4647 80.7879 96.991 78.3034 97.983C78.6618 98.1953 79.0277 98.3948 79.4002 98.5812C82.8776 100.317 89.021 99.7569 94.7284 97.1612C100.418 94.5737 105.501 90.1041 107.385 85.5762C108.329 83.0309 107.655 81.7034 106.002 79.7566C104.825 78.3714 103.106 76.975 101.396 75.431V75.4307ZM53.5615 75.5955C50.5479 75.5679 47.4874 76.4376 44.9581 78.3405C41.3609 81.047 38.5878 85.8735 38.563 94.0719V94.1282L38.5602 94.1844C37.739 111.448 39.0102 119.413 41.5288 123.734C43.7518 127.548 47.4491 129.374 52.8576 132.732C53.1152 132.056 53.3835 131.223 53.6352 130.173C54.2756 127.502 54.8055 123.833 55.1413 119.774C55.8132 111.658 55.7151 101.912 54.5915 94.8991L53.9977 91.1894L57.6585 92.0318C66.5502 94.0773 71.6366 94.3189 74.5897 93.798C77.5434 93.2766 78.5444 92.2447 80.2769 90.5288C81.9053 88.9166 81.875 88.3364 81.5301 87.4291C81.1851 86.5215 79.8007 85.0258 77.452 83.5948C72.7543 80.7328 64.7719 78.0792 57.3106 76.1004C56.0868 75.7765 54.8274 75.6068 53.5615 75.5955ZM106.746 95.1188C103.93 97.8621 100.464 100.114 96.8242 101.769C90.9228 104.453 84.4315 105.681 79.0461 103.894C77.1449 104.601 76.0404 105.414 75.4833 106.088C74.7188 107.011 74.671 107.691 74.9301 108.664C75.1888 109.637 75.9608 110.792 76.9154 111.624C77.8697 112.455 79.004 112.887 79.4351 112.907C92.5959 113.532 98.2918 109.755 105.388 105.375C107.457 104.097 108.249 101.509 108.051 98.9252C107.952 97.6331 107.576 96.419 107.142 95.6543C107.034 95.4591 106.901 95.2791 106.746 95.1188ZM60.0058 97.677C60.7728 104.727 60.7854 112.953 60.1864 120.192C59.8356 124.431 59.2934 128.286 58.5582 131.353C58.2384 132.688 57.8866 133.872 57.4613 134.914L98.7199 133.095C98.2541 131.366 97.7794 129.629 97.3049 127.892C95.7197 128.419 94.0995 128.835 92.4562 129.136L92.4685 129.341L90.1296 129.487C88.6894 129.66 87.19 129.755 85.6344 129.766L62.0488 131.231L62.75 127.967C64.985 117.559 65.1912 108.395 63.8125 98.3697C62.5391 98.1635 61.2699 97.9326 60.0055 97.677H60.0058ZM68.9979 98.9944C70.1083 107.976 69.9747 116.547 68.3212 125.769L73.7392 125.433C72.8896 124.179 72.3057 122.765 72.0236 121.277C71.6591 119.342 71.8619 117.188 73.1278 115.407C73.1838 115.328 73.2442 115.252 73.3041 115.176C71.8287 113.813 70.5963 112.065 70.0377 109.966C69.4431 107.732 69.8144 104.997 71.5837 102.859C72.1685 102.153 72.8752 101.516 73.7052 100.942C72.9711 100.357 72.3276 99.7369 71.7719 99.0908C70.9101 99.0968 69.9874 99.0647 68.9979 98.9944ZM106.31 110.746C99.7132 114.755 92.3012 118.587 79.1949 117.964C78.7672 117.944 78.342 117.886 77.9242 117.791C77.5775 117.947 77.3924 118.145 77.2543 118.339C76.9835 118.72 76.8234 119.408 76.9986 120.34C77.3496 122.203 79.1151 124.246 80.759 124.437C92.3985 125.791 100.441 121.983 105.324 117.553C107.574 115.512 107.593 114.206 107.261 112.785C107.095 112.076 106.73 111.388 106.31 110.746ZM104.431 124.545C103.649 125.035 102.847 125.491 102.027 125.912C102.491 127.614 102.956 129.316 103.415 131.018L109.018 130.013C107.572 128.779 106.441 127.495 105.533 126.217C105.128 125.647 104.77 125.092 104.431 124.545Z" fill="#E7C200"/>
</svg>
