<svg width="144" height="144" viewBox="0 0 144 144" fill="none" xmlns="http://www.w3.org/2000/svg">
<rect width="144" height="144" fill="#83001A"/>
<path d="M43.1667 76.2917C38.4445 75.3472 34.4931 73.0695 31.3125 69.4583C30.9427 69.0415 30.6811 68.5401 30.5509 67.9982C30.4206 67.4564 30.4257 66.8909 30.5657 66.3515C30.7057 65.8121 30.9763 65.3155 31.3536 64.9054C31.7309 64.4953 32.2033 64.1844 32.7292 64L35.1458 63.1458C36.2986 62.7431 36.3195 62.2708 35.2083 61.7292C29.8542 59.1667 25.0833 56.0208 23.2708 50.2292C23.0789 49.62 23.0659 48.9686 23.2335 48.3523C23.4011 47.736 23.7423 47.1809 24.2163 46.7529C24.6904 46.3249 25.2774 46.0422 25.9076 45.9382C26.5377 45.8343 27.1845 45.9136 27.7708 46.1667C28.3403 46.4028 28.9306 46.5278 29.5417 46.5417C30.5417 46.5694 30.882 46.1111 30.5625 45.1667C28.7153 39.7778 27.9792 33.6458 28.3542 26.7708C28.3794 26.3781 28.4985 25.9971 28.7015 25.66C28.9045 25.3228 29.1855 25.0393 29.5208 24.8333C31.8403 23.4028 33.4722 23.9861 34.4167 26.5833C36.75 33.0694 41.5903 38.3958 48.9375 42.5625C59.6181 48.6458 69.2014 54.7708 77.6875 60.9375C81.5208 63.7153 84.7986 67.1042 87.5208 71.1042C87.8045 71.5215 88.1954 71.8554 88.6532 72.0715C89.111 72.2876 89.6191 72.378 90.125 72.3333L90.7917 72.2708C91.8195 72.1875 92.0695 71.7014 91.5417 70.8125C85.1667 60.125 73.5417 51.6875 63.1458 44.5625C62.6889 44.2529 62.3138 43.8373 62.0526 43.3511C61.7914 42.8649 61.6518 42.3227 61.6458 41.7708C61.5903 35.5764 64.1597 30.5486 69.3542 26.6875C69.7436 26.398 70.2012 26.2142 70.6827 26.1539C71.1641 26.0936 71.653 26.1589 72.1018 26.3435C72.5505 26.528 72.9439 26.8255 73.2437 27.207C73.5434 27.5886 73.7394 28.0412 73.8125 28.5208C74.6458 33.8958 75.6875 38.3958 79.4583 42.625C84.9167 48.7361 90.8333 54.8958 97.2083 61.1042C102.667 66.4375 105.979 71.4931 107.146 76.2708C107.313 76.9792 107.653 77.5833 108.167 78.0833C113.611 83.3056 116.09 89.4445 115.604 96.5C114.396 114.5 93.4583 123.958 79.3958 113.25C71.0486 106.903 68.2847 98.4028 71.1042 87.75C71.3403 86.875 71.007 86.4514 70.1042 86.4792C62.0833 86.7917 49.3542 87.625 42.1667 83.9167C41.8554 83.754 41.5863 83.5247 41.3803 83.2464C41.1743 82.9682 41.0371 82.6486 40.9792 82.3125C40.6181 80.382 41.4097 79.0139 43.3542 78.2083C45.4097 77.3611 45.3472 76.7222 43.1667 76.2917ZM93.2708 92.3958C92.0625 93.0417 90.4375 92.6667 89.3958 91.875C86.3681 89.5972 83.0417 88.0139 79.4167 87.125C78.625 86.9445 78.0764 87.2292 77.7708 87.9792C72.5833 100.521 81.875 112.938 95.2292 111.271C104.75 110.083 111.396 100.417 108.958 91.0625C106.944 83.382 101.618 79.0764 92.9792 78.1458C92.8193 78.1288 92.6578 78.1552 92.5116 78.2221C92.3655 78.289 92.24 78.394 92.1484 78.5261C92.0567 78.6582 92.0024 78.8125 91.9909 78.9729C91.9795 79.1333 92.0114 79.2937 92.0833 79.4375C93.7222 82.7292 94.625 86.1458 94.7917 89.6875C94.8239 90.2351 94.6979 90.7811 94.4284 91.2609C94.1589 91.7408 93.7573 92.1346 93.2708 92.3958Z" fill="#E7C200"/>
</svg>
