<svg width="48" height="48" viewBox="0 0 48 48" fill="none" xmlns="http://www.w3.org/2000/svg">
<path d="M17.0799 25.03C15.9466 24.8033 14.9983 24.2567 14.2349 23.39C14.1462 23.29 14.0834 23.1696 14.0522 23.0396C14.0209 22.9096 14.0221 22.7738 14.0557 22.6444C14.0893 22.5149 14.1543 22.3957 14.2448 22.2973C14.3354 22.1989 14.4487 22.1243 14.5749 22.08L15.1549 21.875C15.4316 21.7783 15.4366 21.665 15.1699 21.535C13.8849 20.92 12.7399 20.165 12.3049 18.775C12.2589 18.6288 12.2558 18.4725 12.296 18.3246C12.3362 18.1767 12.4181 18.0434 12.5319 17.9407C12.6456 17.838 12.7865 17.7701 12.9378 17.7452C13.089 17.7202 13.2442 17.7393 13.3849 17.8C13.5216 17.8567 13.6633 17.8867 13.8099 17.89C14.0499 17.8967 14.1316 17.7867 14.0549 17.56C13.6116 16.2667 13.4349 14.795 13.5249 13.145C13.531 13.0508 13.5596 12.9593 13.6083 12.8784C13.657 12.7975 13.7245 12.7294 13.8049 12.68C14.3616 12.3367 14.7533 12.4767 14.9799 13.1C15.5399 14.6567 16.7016 15.935 18.4649 16.935C21.0283 18.395 23.3283 19.865 25.3649 21.345C26.2849 22.0117 27.0716 22.825 27.7249 23.785C27.793 23.8852 27.8869 23.9653 27.9967 24.0172C28.1066 24.069 28.2285 24.0907 28.3499 24.08L28.5099 24.065C28.7566 24.045 28.8166 23.9283 28.6899 23.715C27.1599 21.15 24.3699 19.125 21.8749 17.415C21.7653 17.3407 21.6753 17.241 21.6126 17.1243C21.5499 17.0076 21.5164 16.8775 21.5149 16.745C21.5016 15.2583 22.1183 14.0517 23.3649 13.125C23.4584 13.0555 23.5682 13.0114 23.6838 12.997C23.7993 12.9825 23.9167 12.9982 24.0244 13.0424C24.1321 13.0867 24.2265 13.1581 24.2984 13.2497C24.3704 13.3413 24.4174 13.4499 24.4349 13.565C24.6349 14.855 24.8849 15.935 25.7899 16.95C27.0999 18.4167 28.5199 19.895 30.0499 21.385C31.3599 22.665 32.1549 23.8783 32.4349 25.025C32.4749 25.195 32.5566 25.34 32.6799 25.46C33.9866 26.7133 34.5816 28.1867 34.4649 29.88C34.1749 34.2 29.1499 36.47 25.7749 33.9C23.7716 32.3767 23.1083 30.3367 23.7849 27.78C23.8416 27.57 23.7616 27.4683 23.5449 27.475C21.6199 27.55 18.5649 27.75 16.8399 26.86C16.7652 26.821 16.7006 26.7659 16.6512 26.6992C16.6018 26.6324 16.5688 26.5557 16.5549 26.475C16.4683 26.0117 16.6583 25.6833 17.1249 25.49C17.6183 25.2867 17.6033 25.1333 17.0799 25.03ZM29.1049 28.895C28.8149 29.05 28.4249 28.96 28.1749 28.77C27.4483 28.2234 26.6499 27.8433 25.7799 27.63C25.5899 27.5867 25.4583 27.655 25.3849 27.835C24.1399 30.845 26.3699 33.825 29.5749 33.425C31.8599 33.14 33.4549 30.82 32.8699 28.575C32.3866 26.7317 31.1083 25.6983 29.0349 25.475C28.9966 25.4709 28.9578 25.4773 28.9227 25.4933C28.8877 25.5094 28.8575 25.5346 28.8356 25.5663C28.8136 25.598 28.8005 25.635 28.7978 25.6735C28.795 25.712 28.8027 25.7505 28.8199 25.785C29.2133 26.575 29.4299 27.395 29.4699 28.245C29.4777 28.3764 29.4474 28.5075 29.3828 28.6226C29.3181 28.7378 29.2217 28.8323 29.1049 28.895Z" fill="#E7C200"/>
</svg>
