<svg width="48" height="48" viewBox="0 0 48 48" fill="none" xmlns="http://www.w3.org/2000/svg">
<path d="M10.1599 26.06C7.89323 25.6066 5.99656 24.5133 4.46989 22.78C4.29237 22.5799 4.16682 22.3392 4.10431 22.0791C4.04179 21.8191 4.04424 21.5476 4.11144 21.2887C4.17863 21.0298 4.30851 20.7914 4.48961 20.5946C4.67071 20.3977 4.89748 20.2485 5.14989 20.16L6.30989 19.75C6.86323 19.5566 6.87323 19.33 6.33989 19.07C3.76989 17.84 1.47989 16.33 0.609892 13.55C0.517738 13.2576 0.511519 12.9449 0.591975 12.6491C0.672431 12.3533 0.836175 12.0868 1.06372 11.8814C1.29127 11.6759 1.57305 11.5402 1.87552 11.4903C2.17799 11.4404 2.48843 11.4785 2.76989 11.6C3.04323 11.7133 3.32656 11.7733 3.61989 11.78C4.09989 11.7933 4.26323 11.5733 4.10989 11.12C3.22323 8.5333 2.86989 5.58997 3.04989 2.28997C3.06198 2.10145 3.11915 1.91858 3.21659 1.75675C3.31404 1.59491 3.44892 1.45884 3.60989 1.35997C4.72323 0.673302 5.50656 0.953302 5.95989 2.19997C7.07989 5.3133 9.40323 7.86997 12.9299 9.86997C18.0566 12.79 22.6566 15.73 26.7299 18.69C28.5699 20.0233 30.1432 21.65 31.4499 23.57C31.5861 23.7703 31.7737 23.9306 31.9934 24.0343C32.2132 24.138 32.4571 24.1814 32.6999 24.16L33.0199 24.13C33.5132 24.09 33.6332 23.8566 33.3799 23.43C30.3199 18.3 24.7399 14.25 19.7499 10.83C19.5306 10.6814 19.3505 10.4819 19.2251 10.2485C19.0997 10.0151 19.0328 9.75487 19.0299 9.48997C19.0032 6.51663 20.2366 4.1033 22.7299 2.24997C22.9168 2.11102 23.1365 2.02279 23.3676 1.99385C23.5987 1.96492 23.8333 1.99626 24.0487 2.08484C24.2641 2.17341 24.453 2.31621 24.5968 2.49934C24.7407 2.68248 24.8348 2.89973 24.8699 3.12997C25.2699 5.70997 25.7699 7.86997 27.5799 9.89997C30.1999 12.8333 33.0399 15.79 36.0999 18.77C38.7199 21.33 40.3099 23.7566 40.8699 26.05C40.9499 26.39 41.1132 26.68 41.3599 26.92C43.9732 29.4266 45.1632 32.3733 44.9299 35.76C44.3499 44.4 34.2999 48.94 27.5499 43.8C23.5432 40.7533 22.2166 36.6733 23.5699 31.56C23.6832 31.14 23.5232 30.9366 23.0899 30.95C19.2399 31.1 13.1299 31.5 9.67989 29.72C9.53046 29.6419 9.40129 29.5318 9.30243 29.3983C9.20356 29.2647 9.13768 29.1113 9.10989 28.95C8.93656 28.0233 9.31656 27.3666 10.2499 26.98C11.2366 26.5733 11.2066 26.2666 10.1599 26.06ZM34.2099 33.79C33.6299 34.1 32.8499 33.92 32.3499 33.54C30.8966 32.4466 29.2999 31.6866 27.5599 31.26C27.1799 31.1733 26.9166 31.31 26.7699 31.67C24.2799 37.69 28.7399 43.65 35.1499 42.85C39.7199 42.28 42.9099 37.64 41.7399 33.15C40.7732 29.4633 38.2166 27.3966 34.0699 26.95C33.9932 26.9418 33.9156 26.9545 33.8455 26.9866C33.7753 27.0187 33.7151 27.0691 33.6711 27.1325C33.6271 27.1959 33.601 27.27 33.5955 27.347C33.59 27.4239 33.6054 27.501 33.6399 27.57C34.4266 29.15 34.8599 30.79 34.9399 32.49C34.9554 32.7528 34.8949 33.0149 34.7655 33.2452C34.6362 33.4755 34.4434 33.6646 34.2099 33.79Z" fill="black" fill-opacity="0.5"/>
</svg>
