<svg width="16" height="16" viewBox="0 0 16 16" fill="none" xmlns="http://www.w3.org/2000/svg">
<g clip-path="url(#clip0_589_3003)">
<path d="M0.666626 14.6533C0.666626 15.0267 0.966626 15.3267 1.33996 15.3267H9.99996C10.3733 15.3267 10.6733 15.0267 10.6733 14.6533V14H0.666626V14.6533ZM5.66663 5.99332C3.16663 5.99332 0.666626 7.33332 0.666626 9.99999H10.6666C10.6666 7.33332 8.16663 5.99332 5.66663 5.99332ZM2.41329 8.66666C3.15329 7.63332 4.72663 7.32666 5.66663 7.32666C6.60663 7.32666 8.17996 7.63332 8.91996 8.66666H2.41329ZM0.666626 11.3333H10.6666V12.6667H0.666626V11.3333ZM12 3.33332V0.666656H10.6666V3.33332H7.33329L7.48663 4.66666H13.86L12.9266 14H12V15.3333H13.1466C13.7066 15.3333 14.1666 14.9 14.2333 14.3533L15.3333 3.33332H12Z" fill="#83001A"/>
</g>
<defs>
<clipPath id="clip0_589_3003">
<rect width="16" height="16" fill="white"/>
</clipPath>
</defs>
</svg>
