<svg width="16" height="16" viewBox="0 0 16 16" fill="none" xmlns="http://www.w3.org/2000/svg">
<path d="M7.99996 3.66667L12 6.66667V12.6667H3.99996V6.66667L7.99996 3.66667ZM7.99996 2L2.66663 6V14H13.3333V6L7.99996 2ZM7.66663 6.33333V8.33333H7.33329V6.33333H6.66663V8.33333H6.33329V6.33333H5.66663V8.33333C5.66663 8.88667 6.11329 9.33333 6.66663 9.33333V12H7.33329V9.33333C7.88663 9.33333 8.33329 8.88667 8.33329 8.33333V6.33333H7.66663ZM8.66663 7.66667V9.66667H9.33329V12H9.99996V6.33333C9.26663 6.33333 8.66663 6.93333 8.66663 7.66667Z" fill="#83001A"/>
</svg>
