<svg width="16" height="16" viewBox="0 0 16 16" fill="none" xmlns="http://www.w3.org/2000/svg">
<path d="M5.66663 11C6.21891 11 6.66663 10.5523 6.66663 10C6.66663 9.44774 6.21891 9.00002 5.66663 9.00002C5.11434 9.00002 4.66663 9.44774 4.66663 10C4.66663 10.5523 5.11434 11 5.66663 11Z" fill="#83001A"/>
<path d="M10.3333 11C10.8856 11 11.3333 10.5523 11.3333 10C11.3333 9.44774 10.8856 9.00002 10.3333 9.00002C9.78101 9.00002 9.33329 9.44774 9.33329 10C9.33329 10.5523 9.78101 11 10.3333 11Z" fill="#83001A"/>
<path d="M7.99996 1.66669C5.33329 1.66669 2.66663 2.00002 2.66663 4.33335V10.6667C2.66663 11.9534 3.71329 13 4.99996 13L3.99996 14V14.3334H5.33329L6.66663 13H9.33329L10.6666 14.3334H12V14L11 13C12.2866 13 13.3333 11.9534 13.3333 10.6667V4.33335C13.3333 2.00002 10.6666 1.66669 7.99996 1.66669ZM7.99996 3.00002C10.34 3.00002 11.3066 3.32002 11.7133 3.66669H4.28663C4.69329 3.32002 5.65996 3.00002 7.99996 3.00002ZM3.99996 5.00002H7.33329V7.00002H3.99996V5.00002ZM12 10.6667C12 11.22 11.5533 11.6667 11 11.6667H4.99996C4.44663 11.6667 3.99996 11.22 3.99996 10.6667V8.33335H12V10.6667ZM12 7.00002H8.66663V5.00002H12V7.00002Z" fill="#83001A"/>
</svg>
