<svg width="16" height="16" viewBox="0 0 16 16" fill="none" xmlns="http://www.w3.org/2000/svg">
<path d="M14 6V7.33333H12.6666V2H11.3333V3.33333H9.99996V2H8.66663V3.33333H7.33329V2H5.99996V3.33333H4.66663V2H3.33329V7.33333H1.99996V6H0.666626V14H6.66663V12C6.66663 11.2667 7.26663 10.6667 7.99996 10.6667C8.73329 10.6667 9.33329 11.2667 9.33329 12V14H15.3333V6H14ZM14 12.6667H10.6666V12C10.6666 10.5267 9.47329 9.33333 7.99996 9.33333C6.52663 9.33333 5.33329 10.5267 5.33329 12V12.6667H1.99996V8.66667H4.66663V4.66667H11.3333V8.66667H14V12.6667Z" fill="#83001A"/>
<path d="M7.33329 6H5.99996V8H7.33329V6Z" fill="#83001A"/>
<path d="M9.99996 6H8.66663V8H9.99996V6Z" fill="#83001A"/>
</svg>
