<svg width="16" height="16" viewBox="0 0 16 16" fill="none" xmlns="http://www.w3.org/2000/svg">
<path d="M10 6.99999C10 6.63332 10.3 6.33332 10.6667 6.33332C11.0334 6.33332 11.3334 6.63332 11.3334 6.99999C11.3334 7.36666 11.0334 7.66666 10.6667 7.66666C10.3 7.66666 10 7.36666 10 6.99999ZM5.33337 6.33332H8.66671V4.99999H5.33337V6.33332ZM14.6667 5.33332V9.97999L12.7867 10.6067L11.6667 14.3333H8.00004V13H6.66671V14.3333H3.00004C3.00004 14.3333 1.33337 8.69332 1.33337 6.66666C1.33337 4.63999 2.97337 2.99999 5.00004 2.99999H8.33337C8.94004 2.19332 9.90671 1.66666 11 1.66666C11.5534 1.66666 12 2.11332 12 2.66666C12 2.80666 11.9734 2.93332 11.92 3.05332C11.8267 3.27999 11.7467 3.53999 11.7067 3.81999L13.22 5.33332H14.6667ZM13.3334 6.66666H12.6667L10.3334 4.33332C10.3334 3.89999 10.3934 3.47332 10.5067 3.05999C9.86004 3.22666 9.33337 3.70666 9.11337 4.33332H5.00004C3.71337 4.33332 2.66671 5.37999 2.66671 6.66666C2.66671 7.91999 3.48004 11.1 4.00671 13H5.33337V11.6667H9.33337V13H10.6734L11.7067 9.56666L13.3334 9.01999V6.66666Z" fill="#83001A"/>
</svg>
