<svg width="40" height="40" viewBox="0 0 40 40" fill="none" xmlns="http://www.w3.org/2000/svg">
<path d="M34.5167 11.7333C33.95 12.3 33.4 12.85 33.3833 13.4C33.3333 13.9333 33.9 14.4833 34.4333 15C35.2333 15.8333 36.0167 16.5833 35.9833 17.4C35.95 18.2167 35.1 19.0667 34.25 19.9L27.3667 26.8L25 24.4333L32.0833 17.3667L30.4833 15.7667L28.1167 18.1167L21.8667 11.8667L28.2667 5.48332C28.9167 4.83332 30 4.83332 30.6167 5.48332L34.5167 9.38332C35.1667 9.99999 35.1667 11.0833 34.5167 11.7333ZM5 28.75L20.9333 12.8L27.1833 19.05L11.25 35H5V28.75Z" fill="#888888"/>
</svg>
