<svg width="40" height="40" viewBox="0 0 40 40" fill="none" xmlns="http://www.w3.org/2000/svg">
<path d="M15.3 1.66666H24.7L25.7783 7.06166C26.6712 7.46168 27.5202 7.9532 28.3116 8.52832L33.5266 6.76332L38.2267 14.9033L34.0916 18.5367C34.1918 19.5096 34.1918 20.4903 34.0916 21.4633L38.225 25.0967L33.5266 33.2367L28.3116 31.4733C27.5201 32.0478 26.6711 32.5388 25.7783 32.9383L24.6983 38.3333H15.3L14.2216 32.9383C13.3288 32.5383 12.4798 32.0468 11.6883 31.4717L6.47332 33.2367L1.77332 25.0967L5.90832 21.4633C5.8083 20.4903 5.8083 19.5096 5.90832 18.5367L1.77498 14.9033L6.47498 6.76332L11.6883 8.52666C12.4799 7.9521 13.3289 7.46114 14.2216 7.06166L15.3 1.66666ZM18.0333 4.99999L17.13 9.50832L16.255 9.82999C15.0953 10.2579 14.0174 10.8814 13.0683 11.6733L12.3516 12.2717L7.99332 10.7967L6.02665 14.2033L9.47998 17.2383L9.32165 18.1567C9.11264 19.3767 9.11264 20.6233 9.32165 21.8433L9.47998 22.76L6.02498 25.7967L7.99165 29.2033L12.3516 27.7283L13.0683 28.3267C14.018 29.1179 15.0957 29.7413 16.255 30.17L17.13 30.4917L18.0333 35H21.9666L22.87 30.4917L23.745 30.17C24.9047 29.742 25.9825 29.1186 26.9316 28.3267L27.6483 27.7283L32.0083 29.2033L33.975 25.7967L30.5216 22.7617L30.6783 21.8433C30.8873 20.6233 30.8873 19.3767 30.6783 18.1567L30.5216 17.24L33.975 14.2033L32.0083 10.7967L27.6483 12.2717L26.9316 11.6733C25.9826 10.8813 24.9047 10.2578 23.745 9.82999L22.87 9.50832L21.9666 4.99999H18.0333ZM20 15C18.6739 15 17.4021 15.5268 16.4644 16.4645C15.5268 17.4021 15 18.6739 15 20C15 21.3261 15.5268 22.5978 16.4644 23.5355C17.4021 24.4732 18.6739 25 20 25C21.3261 25 22.5978 24.4732 23.5355 23.5355C24.4732 22.5978 25 21.3261 25 20C25 18.6739 24.4732 17.4021 23.5355 16.4645C22.5978 15.5268 21.3261 15 20 15ZM11.6666 20C11.6666 17.7899 12.5446 15.6702 14.1074 14.1074C15.6702 12.5446 17.7898 11.6667 20 11.6667C22.2101 11.6667 24.3297 12.5446 25.8925 14.1074C27.4553 15.6702 28.3333 17.7899 28.3333 20C28.3333 22.2101 27.4553 24.3297 25.8925 25.8925C24.3297 27.4554 22.2101 28.3333 20 28.3333C17.7898 28.3333 15.6702 27.4554 14.1074 25.8925C12.5446 24.3297 11.6666 22.2101 11.6666 20Z" fill="#83001A"/>
</svg>
